<?xml version="1.0" encoding="UTF-8" standalone="no"?>
<!DOCTYPE svg PUBLIC "-//W3C//DTD SVG 1.1//EN"
 "http://www.w3.org/Graphics/SVG/1.1/DTD/svg11.dtd">
<!-- Generated by graphviz version 2.40.1 (0)
 -->
<!-- Title: snakemake_dag Pages: 1 -->
<svg width="732pt" height="548pt"
 viewBox="0.00 0.00 731.50 548.00" xmlns="http://www.w3.org/2000/svg" xmlns:xlink="http://www.w3.org/1999/xlink">
<g id="graph0" class="graph" transform="scale(1 1) rotate(0) translate(4 544)">
<title>snakemake_dag</title>
<polygon fill="#ffffff" stroke="transparent" points="-4,4 -4,-544 727.5,-544 727.5,4 -4,4"/>
<!-- 0 -->
<g id="node1" class="node">
<title>0</title>
<path fill="none" stroke="#567bd8" stroke-width="2" d="M322,-36C322,-36 292,-36 292,-36 286,-36 280,-30 280,-24 280,-24 280,-12 280,-12 280,-6 286,0 292,0 292,0 322,0 322,0 328,0 334,-6 334,-12 334,-12 334,-24 334,-24 334,-30 328,-36 322,-36"/>
<text text-anchor="middle" x="307" y="-15.5" font-family="sans" font-size="10.00" fill="#000000">all</text>
</g>
<!-- 1 -->
<g id="node2" class="node">
<title>1</title>
<path fill="none" stroke="#d87556" stroke-width="2" d="M184,-180C184,-180 154,-180 154,-180 148,-180 142,-174 142,-168 142,-168 142,-156 142,-156 142,-150 148,-144 154,-144 154,-144 184,-144 184,-144 190,-144 196,-150 196,-156 196,-156 196,-168 196,-168 196,-174 190,-180 184,-180"/>
<text text-anchor="middle" x="169" y="-159.5" font-family="sans" font-size="10.00" fill="#000000">correct</text>
</g>
<!-- 1&#45;&gt;0 -->
<g id="edge1" class="edge">
<title>1&#45;&gt;0</title>
<path fill="none" stroke="#c0c0c0" stroke-width="2" d="M158.7671,-143.7006C149.3716,-124.1787 138.9956,-93.2072 154,-72 167.6484,-52.7094 229.1267,-35.5094 269.8774,-25.9458"/>
<polygon fill="#c0c0c0" stroke="#c0c0c0" stroke-width="2" points="270.7845,-29.3287 279.7494,-23.6823 269.2201,-22.5058 270.7845,-29.3287"/>
</g>
<!-- 7 -->
<g id="node8" class="node">
<title>7</title>
<path fill="none" stroke="#afd856" stroke-width="2" d="M94.5,-108C94.5,-108 41.5,-108 41.5,-108 35.5,-108 29.5,-102 29.5,-96 29.5,-96 29.5,-84 29.5,-84 29.5,-78 35.5,-72 41.5,-72 41.5,-72 94.5,-72 94.5,-72 100.5,-72 106.5,-78 106.5,-84 106.5,-84 106.5,-96 106.5,-96 106.5,-102 100.5,-108 94.5,-108"/>
<text text-anchor="middle" x="68" y="-87.5" font-family="sans" font-size="10.00" fill="#000000">save_counts</text>
</g>
<!-- 1&#45;&gt;7 -->
<g id="edge17" class="edge">
<title>1&#45;&gt;7</title>
<path fill="none" stroke="#c0c0c0" stroke-width="2" d="M143.5134,-143.8314C130.8341,-134.7927 115.3404,-123.7476 101.6945,-114.0198"/>
<polygon fill="#c0c0c0" stroke="#c0c0c0" stroke-width="2" points="103.6529,-111.1176 93.4784,-108.1628 99.5895,-116.8176 103.6529,-111.1176"/>
</g>
<!-- 10 -->
<g id="node11" class="node">
<title>10</title>
<path fill="none" stroke="#d8bc56" stroke-width="2" d="M228.5,-108C228.5,-108 175.5,-108 175.5,-108 169.5,-108 163.5,-102 163.5,-96 163.5,-96 163.5,-84 163.5,-84 163.5,-78 169.5,-72 175.5,-72 175.5,-72 228.5,-72 228.5,-72 234.5,-72 240.5,-78 240.5,-84 240.5,-84 240.5,-96 240.5,-96 240.5,-102 234.5,-108 228.5,-108"/>
<text text-anchor="middle" x="202" y="-87.5" font-family="sans" font-size="10.00" fill="#000000">seurat_plots</text>
</g>
<!-- 1&#45;&gt;10 -->
<g id="edge27" class="edge">
<title>1&#45;&gt;10</title>
<path fill="none" stroke="#c0c0c0" stroke-width="2" d="M177.3273,-143.8314C180.973,-135.8771 185.3309,-126.369 189.3627,-117.5723"/>
<polygon fill="#c0c0c0" stroke="#c0c0c0" stroke-width="2" points="192.5757,-118.9622 193.5606,-108.4133 186.2123,-116.0456 192.5757,-118.9622"/>
</g>
<!-- 2 -->
<g id="node3" class="node">
<title>2</title>
<path fill="none" stroke="#d85656" stroke-width="2" d="M174.5,-252C174.5,-252 133.5,-252 133.5,-252 127.5,-252 121.5,-246 121.5,-240 121.5,-240 121.5,-228 121.5,-228 121.5,-222 127.5,-216 133.5,-216 133.5,-216 174.5,-216 174.5,-216 180.5,-216 186.5,-222 186.5,-228 186.5,-228 186.5,-240 186.5,-240 186.5,-246 180.5,-252 174.5,-252"/>
<text text-anchor="middle" x="154" y="-231.5" font-family="sans" font-size="10.00" fill="#000000">normalize</text>
</g>
<!-- 2&#45;&gt;1 -->
<g id="edge10" class="edge">
<title>2&#45;&gt;1</title>
<path fill="none" stroke="#c0c0c0" stroke-width="2" d="M157.7851,-215.8314C159.3894,-208.131 161.297,-198.9743 163.0799,-190.4166"/>
<polygon fill="#c0c0c0" stroke="#c0c0c0" stroke-width="2" points="166.5507,-190.9169 165.1639,-180.4133 159.6979,-189.4892 166.5507,-190.9169"/>
</g>
<!-- 2&#45;&gt;7 -->
<g id="edge16" class="edge">
<title>2&#45;&gt;7</title>
<path fill="none" stroke="#c0c0c0" stroke-width="2" d="M143.108,-215.7623C128.181,-190.7682 101.2607,-145.6924 84.03,-116.8409"/>
<polygon fill="#c0c0c0" stroke="#c0c0c0" stroke-width="2" points="86.9359,-114.8805 78.8035,-108.0896 80.9261,-118.4697 86.9359,-114.8805"/>
</g>
<!-- 8 -->
<g id="node9" class="node">
<title>8</title>
<path fill="none" stroke="#88d856" stroke-width="2" d="M378.5,-180C378.5,-180 309.5,-180 309.5,-180 303.5,-180 297.5,-174 297.5,-168 297.5,-168 297.5,-156 297.5,-156 297.5,-150 303.5,-144 309.5,-144 309.5,-144 378.5,-144 378.5,-144 384.5,-144 390.5,-150 390.5,-156 390.5,-156 390.5,-168 390.5,-168 390.5,-174 384.5,-180 378.5,-180"/>
<text text-anchor="middle" x="344" y="-159.5" font-family="sans" font-size="10.00" fill="#000000">metadata_plots</text>
</g>
<!-- 2&#45;&gt;8 -->
<g id="edge22" class="edge">
<title>2&#45;&gt;8</title>
<path fill="none" stroke="#c0c0c0" stroke-width="2" d="M186.5917,-219.4599C189.4257,-218.266 192.2574,-217.0976 195,-216 225.3912,-203.837 259.7156,-191.3163 287.7536,-181.3973"/>
<polygon fill="#c0c0c0" stroke="#c0c0c0" stroke-width="2" points="289.1229,-184.6258 297.392,-178.0021 286.7972,-178.0234 289.1229,-184.6258"/>
</g>
<!-- 2&#45;&gt;10 -->
<g id="edge26" class="edge">
<title>2&#45;&gt;10</title>
<path fill="none" stroke="#c0c0c0" stroke-width="2" d="M177.8491,-215.928C188.2942,-206.5042 199.426,-194.02 205,-180 212.7735,-160.4479 211.5444,-136.579 208.6299,-118.3361"/>
<polygon fill="#c0c0c0" stroke="#c0c0c0" stroke-width="2" points="212.0376,-117.5155 206.7745,-108.3203 205.1547,-118.7906 212.0376,-117.5155"/>
</g>
<!-- 3 -->
<g id="node4" class="node">
<title>3</title>
<path fill="none" stroke="#569ad8" stroke-width="2" d="M219.5,-324C219.5,-324 176.5,-324 176.5,-324 170.5,-324 164.5,-318 164.5,-312 164.5,-312 164.5,-300 164.5,-300 164.5,-294 170.5,-288 176.5,-288 176.5,-288 219.5,-288 219.5,-288 225.5,-288 231.5,-294 231.5,-300 231.5,-300 231.5,-312 231.5,-312 231.5,-318 225.5,-324 219.5,-324"/>
<text text-anchor="middle" x="198" y="-303.5" font-family="sans" font-size="10.00" fill="#000000">filter_cells</text>
</g>
<!-- 3&#45;&gt;2 -->
<g id="edge11" class="edge">
<title>3&#45;&gt;2</title>
<path fill="none" stroke="#c0c0c0" stroke-width="2" d="M186.8969,-287.8314C181.9326,-279.7079 175.9778,-269.9637 170.5072,-261.0118"/>
<polygon fill="#c0c0c0" stroke="#c0c0c0" stroke-width="2" points="173.4536,-259.121 165.2526,-252.4133 167.4806,-262.7712 173.4536,-259.121"/>
</g>
<!-- 3&#45;&gt;7 -->
<g id="edge20" class="edge">
<title>3&#45;&gt;7</title>
<path fill="none" stroke="#c0c0c0" stroke-width="2" d="M164.2227,-292.1752C146.2641,-283.2088 125.2241,-269.8485 112,-252 82.3328,-211.9585 72.6671,-153.1315 69.5191,-118.479"/>
<polygon fill="#c0c0c0" stroke="#c0c0c0" stroke-width="2" points="72.979,-117.8284 68.709,-108.1321 66.0003,-118.3748 72.979,-117.8284"/>
</g>
<!-- 3&#45;&gt;8 -->
<g id="edge21" class="edge">
<title>3&#45;&gt;8</title>
<path fill="none" stroke="#c0c0c0" stroke-width="2" d="M231.8144,-289.9025C249.3084,-280.4851 270.2389,-267.417 286,-252 304.6432,-233.7639 320.272,-208.485 330.591,-189.3599"/>
<polygon fill="#c0c0c0" stroke="#c0c0c0" stroke-width="2" points="333.8192,-190.7397 335.3555,-180.2569 327.6173,-187.4937 333.8192,-190.7397"/>
</g>
<!-- 9 -->
<g id="node10" class="node">
<title>9</title>
<path fill="none" stroke="#ced856" stroke-width="2" d="M265.5,-252C265.5,-252 216.5,-252 216.5,-252 210.5,-252 204.5,-246 204.5,-240 204.5,-240 204.5,-228 204.5,-228 204.5,-222 210.5,-216 216.5,-216 216.5,-216 265.5,-216 265.5,-216 271.5,-216 277.5,-222 277.5,-228 277.5,-228 277.5,-240 277.5,-240 277.5,-246 271.5,-252 265.5,-252"/>
<text text-anchor="middle" x="241" y="-231.5" font-family="sans" font-size="10.00" fill="#000000">pseudobulk</text>
</g>
<!-- 3&#45;&gt;9 -->
<g id="edge25" class="edge">
<title>3&#45;&gt;9</title>
<path fill="none" stroke="#c0c0c0" stroke-width="2" d="M208.8507,-287.8314C213.7023,-279.7079 219.5217,-269.9637 224.868,-261.0118"/>
<polygon fill="#c0c0c0" stroke="#c0c0c0" stroke-width="2" points="227.8806,-262.7933 230.0032,-252.4133 221.8708,-259.2041 227.8806,-262.7933"/>
</g>
<!-- 4 -->
<g id="node5" class="node">
<title>4</title>
<path fill="none" stroke="#56d86b" stroke-width="2" d="M212,-468C212,-468 182,-468 182,-468 176,-468 170,-462 170,-456 170,-456 170,-444 170,-444 170,-438 176,-432 182,-432 182,-432 212,-432 212,-432 218,-432 224,-438 224,-444 224,-444 224,-456 224,-456 224,-462 218,-468 212,-468"/>
<text text-anchor="middle" x="197" y="-447.5" font-family="sans" font-size="10.00" fill="#000000">merge</text>
</g>
<!-- 4&#45;&gt;3 -->
<g id="edge12" class="edge">
<title>4&#45;&gt;3</title>
<path fill="none" stroke="#c0c0c0" stroke-width="2" d="M193.585,-431.5804C191.8291,-421.1767 189.8774,-407.9092 189,-396 187.8244,-380.0432 187.6803,-375.9455 189,-360 189.6945,-351.6085 190.9862,-342.5578 192.3786,-334.3092"/>
<polygon fill="#c0c0c0" stroke="#c0c0c0" stroke-width="2" points="195.8353,-334.8612 194.1587,-324.3999 188.9456,-333.6235 195.8353,-334.8612"/>
</g>
<!-- 6 -->
<g id="node7" class="node">
<title>6</title>
<path fill="none" stroke="#d89c56" stroke-width="2" d="M240,-396C240,-396 210,-396 210,-396 204,-396 198,-390 198,-384 198,-384 198,-372 198,-372 198,-366 204,-360 210,-360 210,-360 240,-360 240,-360 246,-360 252,-366 252,-372 252,-372 252,-384 252,-384 252,-390 246,-396 240,-396"/>
<text text-anchor="middle" x="225" y="-375.5" font-family="sans" font-size="10.00" fill="#000000">split</text>
</g>
<!-- 4&#45;&gt;6 -->
<g id="edge15" class="edge">
<title>4&#45;&gt;6</title>
<path fill="none" stroke="#c0c0c0" stroke-width="2" d="M204.0656,-431.8314C207.126,-423.9617 210.7779,-414.5712 214.1682,-405.8533"/>
<polygon fill="#c0c0c0" stroke="#c0c0c0" stroke-width="2" points="217.4768,-407.0019 217.8393,-396.4133 210.9527,-404.4647 217.4768,-407.0019"/>
</g>
<!-- 4&#45;&gt;7 -->
<g id="edge19" class="edge">
<title>4&#45;&gt;7</title>
<path fill="none" stroke="#c0c0c0" stroke-width="2" d="M169.608,-443.661C115.4778,-429.3324 0,-389.0341 0,-306 0,-306 0,-306 0,-234 0,-189.5937 26.7678,-144.2246 46.7146,-116.5811"/>
<polygon fill="#c0c0c0" stroke="#c0c0c0" stroke-width="2" points="49.7495,-118.3654 52.9086,-108.2525 44.1325,-114.1881 49.7495,-118.3654"/>
</g>
<!-- 4&#45;&gt;8 -->
<g id="edge23" class="edge">
<title>4&#45;&gt;8</title>
<path fill="none" stroke="#c0c0c0" stroke-width="2" d="M223.0805,-431.7607C235.5992,-422.1235 250.1885,-409.5056 261,-396 306.0961,-339.6666 315.7521,-321.2613 336,-252 341.8596,-231.9562 343.7884,-208.4209 344.29,-190.4456"/>
<polygon fill="#c0c0c0" stroke="#c0c0c0" stroke-width="2" points="347.7914,-190.3642 344.4398,-180.3135 340.7922,-190.2606 347.7914,-190.3642"/>
</g>
<!-- 5 -->
<g id="node6" class="node">
<title>5</title>
<path fill="none" stroke="#56c1d8" stroke-width="2" d="M212,-540C212,-540 182,-540 182,-540 176,-540 170,-534 170,-528 170,-528 170,-516 170,-516 170,-510 176,-504 182,-504 182,-504 212,-504 212,-504 218,-504 224,-510 224,-516 224,-516 224,-528 224,-528 224,-534 218,-540 212,-540"/>
<text text-anchor="middle" x="197" y="-519.5" font-family="sans" font-size="10.00" fill="#000000">prepare</text>
</g>
<!-- 5&#45;&gt;4 -->
<g id="edge14" class="edge">
<title>5&#45;&gt;4</title>
<path fill="none" stroke="#c0c0c0" stroke-width="2" d="M197,-503.8314C197,-496.131 197,-486.9743 197,-478.4166"/>
<polygon fill="#c0c0c0" stroke="#c0c0c0" stroke-width="2" points="200.5001,-478.4132 197,-468.4133 193.5001,-478.4133 200.5001,-478.4132"/>
</g>
<!-- 6&#45;&gt;3 -->
<g id="edge13" class="edge">
<title>6&#45;&gt;3</title>
<path fill="none" stroke="#c0c0c0" stroke-width="2" d="M218.1868,-359.8314C215.2356,-351.9617 211.7142,-342.5712 208.445,-333.8533"/>
<polygon fill="#c0c0c0" stroke="#c0c0c0" stroke-width="2" points="211.6934,-332.5476 204.905,-324.4133 205.1391,-335.0055 211.6934,-332.5476"/>
</g>
<!-- 6&#45;&gt;7 -->
<g id="edge18" class="edge">
<title>6&#45;&gt;7</title>
<path fill="none" stroke="#c0c0c0" stroke-width="2" d="M197.7596,-360.6128C183.9127,-350.9233 167.4321,-338.0029 155,-324 100.9604,-263.1326 79.3873,-165.6424 71.7281,-118.0163"/>
<polygon fill="#c0c0c0" stroke="#c0c0c0" stroke-width="2" points="75.1844,-117.4638 70.221,-108.1035 68.2639,-118.516 75.1844,-117.4638"/>
</g>
<!-- 6&#45;&gt;8 -->
<g id="edge24" class="edge">
<title>6&#45;&gt;8</title>
<path fill="none" stroke="#c0c0c0" stroke-width="2" d="M240.4042,-359.8915C259.793,-336.3499 293.0844,-293.3428 314,-252 324.0533,-232.1282 331.856,-208.1403 336.9808,-189.9282"/>
<polygon fill="#c0c0c0" stroke="#c0c0c0" stroke-width="2" points="340.3774,-190.7755 339.6176,-180.208 333.6216,-188.9428 340.3774,-190.7755"/>
</g>
<!-- 7&#45;&gt;0 -->
<g id="edge4" class="edge">
<title>7&#45;&gt;0</title>
<path fill="none" stroke="#c0c0c0" stroke-width="2" d="M106.7214,-76.6258C111.5194,-75.0347 116.3654,-73.459 121,-72 172.3048,-55.8493 232.1151,-38.7986 269.7704,-28.2784"/>
<polygon fill="#c0c0c0" stroke="#c0c0c0" stroke-width="2" points="271.0842,-31.5458 279.7781,-25.4905 269.2056,-24.8025 271.0842,-31.5458"/>
</g>
<!-- 8&#45;&gt;0 -->
<g id="edge9" class="edge">
<title>8&#45;&gt;0</title>
<path fill="none" stroke="#c0c0c0" stroke-width="2" d="M337.3111,-143.6639C333.6714,-133.2863 329.26,-120.0171 326,-108 320.434,-87.4823 315.5189,-63.966 312.0828,-46.1181"/>
<polygon fill="#c0c0c0" stroke="#c0c0c0" stroke-width="2" points="315.4813,-45.2519 310.1895,-36.0732 308.6024,-46.5485 315.4813,-45.2519"/>
</g>
<!-- 9&#45;&gt;0 -->
<g id="edge5" class="edge">
<title>9&#45;&gt;0</title>
<path fill="none" stroke="#c0c0c0" stroke-width="2" d="M246.5136,-215.9555C258.0393,-178.235 284.7498,-90.8188 298.4934,-45.8399"/>
<polygon fill="#c0c0c0" stroke="#c0c0c0" stroke-width="2" points="301.8807,-46.7314 301.4557,-36.1451 295.1862,-44.6858 301.8807,-46.7314"/>
</g>
<!-- 10&#45;&gt;0 -->
<g id="edge3" class="edge">
<title>10&#45;&gt;0</title>
<path fill="none" stroke="#c0c0c0" stroke-width="2" d="M228.4959,-71.8314C241.6774,-62.7927 257.7847,-51.7476 271.9711,-42.0198"/>
<polygon fill="#c0c0c0" stroke="#c0c0c0" stroke-width="2" points="274.2446,-44.7047 280.5125,-36.1628 270.2859,-38.9316 274.2446,-44.7047"/>
</g>
<!-- 11 -->
<g id="node12" class="node">
<title>11</title>
<path fill="none" stroke="#68d856" stroke-width="2" d="M394.5,-108C394.5,-108 347.5,-108 347.5,-108 341.5,-108 335.5,-102 335.5,-96 335.5,-96 335.5,-84 335.5,-84 335.5,-78 341.5,-72 347.5,-72 347.5,-72 394.5,-72 394.5,-72 400.5,-72 406.5,-78 406.5,-84 406.5,-84 406.5,-96 406.5,-96 406.5,-102 400.5,-108 394.5,-108"/>
<text text-anchor="middle" x="371" y="-87.5" font-family="sans" font-size="10.00" fill="#000000">env_export</text>
</g>
<!-- 11&#45;&gt;0 -->
<g id="edge2" class="edge">
<title>11&#45;&gt;0</title>
<path fill="none" stroke="#c0c0c0" stroke-width="2" d="M354.8501,-71.8314C347.3283,-63.3694 338.2435,-53.1489 330.0196,-43.8971"/>
<polygon fill="#c0c0c0" stroke="#c0c0c0" stroke-width="2" points="332.627,-41.5621 323.3673,-36.4133 327.3951,-46.2127 332.627,-41.5621"/>
</g>
<!-- 12 -->
<g id="node13" class="node">
<title>12</title>
<path fill="none" stroke="#56d8a9" stroke-width="2" d="M511,-108C511,-108 437,-108 437,-108 431,-108 425,-102 425,-96 425,-96 425,-84 425,-84 425,-78 431,-72 437,-72 437,-72 511,-72 511,-72 517,-72 523,-78 523,-84 523,-84 523,-96 523,-96 523,-102 517,-108 511,-108"/>
<text text-anchor="middle" x="474" y="-87.5" font-family="sans" font-size="10.00" fill="#000000">gene_list_export</text>
</g>
<!-- 12&#45;&gt;0 -->
<g id="edge6" class="edge">
<title>12&#45;&gt;0</title>
<path fill="none" stroke="#c0c0c0" stroke-width="2" d="M431.8588,-71.8314C404.6983,-60.1214 369.7272,-45.0441 343.7078,-33.8261"/>
<polygon fill="#c0c0c0" stroke="#c0c0c0" stroke-width="2" points="344.7775,-30.4759 334.2089,-29.7308 342.0061,-36.904 344.7775,-30.4759"/>
</g>
<!-- 13 -->
<g id="node14" class="node">
<title>13</title>
<path fill="none" stroke="#56d8d0" stroke-width="2" d="M612.5,-108C612.5,-108 553.5,-108 553.5,-108 547.5,-108 541.5,-102 541.5,-96 541.5,-96 541.5,-84 541.5,-84 541.5,-78 547.5,-72 553.5,-72 553.5,-72 612.5,-72 612.5,-72 618.5,-72 624.5,-78 624.5,-84 624.5,-84 624.5,-96 624.5,-96 624.5,-102 618.5,-108 612.5,-108"/>
<text text-anchor="middle" x="583" y="-87.5" font-family="sans" font-size="10.00" fill="#000000">config_export</text>
</g>
<!-- 13&#45;&gt;0 -->
<g id="edge8" class="edge">
<title>13&#45;&gt;0</title>
<path fill="none" stroke="#c0c0c0" stroke-width="2" d="M541.3666,-74.9098C538.2093,-73.8871 535.0615,-72.905 532,-72 466.596,-52.6663 388.9836,-35.2263 344.1214,-25.6714"/>
<polygon fill="#c0c0c0" stroke="#c0c0c0" stroke-width="2" points="344.763,-22.2298 334.2552,-23.585 343.3146,-29.0783 344.763,-22.2298"/>
</g>
<!-- 14 -->
<g id="node15" class="node">
<title>14</title>
<path fill="none" stroke="#56d88a" stroke-width="2" d="M711.5,-108C711.5,-108 654.5,-108 654.5,-108 648.5,-108 642.5,-102 642.5,-96 642.5,-96 642.5,-84 642.5,-84 642.5,-78 648.5,-72 654.5,-72 654.5,-72 711.5,-72 711.5,-72 717.5,-72 723.5,-78 723.5,-84 723.5,-84 723.5,-96 723.5,-96 723.5,-102 717.5,-108 711.5,-108"/>
<text text-anchor="middle" x="683" y="-87.5" font-family="sans" font-size="10.00" fill="#000000">annot_export</text>
</g>
<!-- 14&#45;&gt;0 -->
<g id="edge7" class="edge">
<title>14&#45;&gt;0</title>
<path fill="none" stroke="#c0c0c0" stroke-width="2" d="M642.277,-74.3882C639.4938,-73.5233 636.7166,-72.7164 634,-72 530.6513,-44.7445 405.1179,-28.6114 344.0071,-21.8098"/>
<polygon fill="#c0c0c0" stroke="#c0c0c0" stroke-width="2" points="344.3859,-18.3304 334.0647,-20.7227 343.625,-25.289 344.3859,-18.3304"/>
</g>
</g>
</svg>
