<?xml version="1.0" encoding="UTF-8" standalone="no"?>
<!DOCTYPE svg PUBLIC "-//W3C//DTD SVG 1.1//EN"
 "http://www.w3.org/Graphics/SVG/1.1/DTD/svg11.dtd">
<!-- Generated by graphviz version 2.47.2 (20210527.1257)
 -->
<!-- Title: snakemake_dag Pages: 1 -->
<svg width="1142pt" height="476pt"
 viewBox="0.00 0.00 1142.00 476.00" xmlns="http://www.w3.org/2000/svg" xmlns:xlink="http://www.w3.org/1999/xlink">
<g id="graph0" class="graph" transform="scale(1 1) rotate(0) translate(4 472)">
<title>snakemake_dag</title>
<polygon fill="white" stroke="transparent" points="-4,4 -4,-472 1138,-472 1138,4 -4,4"/>
<!-- 0 -->
<g id="node1" class="node">
<title>0</title>
<path fill="none" stroke="#56d8d0" stroke-width="2" d="M569.5,-36C569.5,-36 539.5,-36 539.5,-36 533.5,-36 527.5,-30 527.5,-24 527.5,-24 527.5,-12 527.5,-12 527.5,-6 533.5,0 539.5,0 539.5,0 569.5,0 569.5,0 575.5,0 581.5,-6 581.5,-12 581.5,-12 581.5,-24 581.5,-24 581.5,-30 575.5,-36 569.5,-36"/>
<text text-anchor="middle" x="554.5" y="-15.5" font-family="sans" font-size="10.00">all</text>
</g>
<!-- 1 -->
<g id="node2" class="node">
<title>1</title>
<path fill="none" stroke="#5673d8" stroke-width="2" d="M396,-180C396,-180 355,-180 355,-180 349,-180 343,-174 343,-168 343,-168 343,-156 343,-156 343,-150 349,-144 355,-144 355,-144 396,-144 396,-144 402,-144 408,-150 408,-156 408,-156 408,-168 408,-168 408,-174 402,-180 396,-180"/>
<text text-anchor="middle" x="375.5" y="-159.5" font-family="sans" font-size="10.00">normalize</text>
</g>
<!-- 1&#45;&gt;0 -->
<g id="edge5" class="edge">
<title>1&#45;&gt;0</title>
<path fill="none" stroke="grey" stroke-width="2" d="M398.97,-143.92C412.55,-133.8 429.8,-120.55 444.5,-108 462.19,-92.89 464.65,-86.92 482.5,-72 494.79,-61.73 508.87,-51.12 521.3,-42.13"/>
<polygon fill="grey" stroke="grey" stroke-width="2" points="523.51,-44.85 529.6,-36.18 519.43,-39.16 523.51,-44.85"/>
</g>
<!-- 6 -->
<g id="node7" class="node">
<title>6</title>
<path fill="none" stroke="#97d856" stroke-width="2" d="M65,-108C65,-108 12,-108 12,-108 6,-108 0,-102 0,-96 0,-96 0,-84 0,-84 0,-78 6,-72 12,-72 12,-72 65,-72 65,-72 71,-72 77,-78 77,-84 77,-84 77,-96 77,-96 77,-102 71,-108 65,-108"/>
<text text-anchor="middle" x="38.5" y="-87.5" font-family="sans" font-size="10.00">save_counts</text>
</g>
<!-- 1&#45;&gt;6 -->
<g id="edge17" class="edge">
<title>1&#45;&gt;6</title>
<path fill="none" stroke="grey" stroke-width="2" d="M342.99,-152.83C330.66,-149.86 316.47,-146.6 303.5,-144 210.74,-125.38 182.94,-131.95 86.92,-107.84"/>
<polygon fill="grey" stroke="grey" stroke-width="2" points="87.65,-104.41 77.09,-105.33 85.91,-111.19 87.65,-104.41"/>
</g>
<!-- 7 -->
<g id="node8" class="node">
<title>7</title>
<path fill="none" stroke="#d87556" stroke-width="2" d="M716,-108C716,-108 647,-108 647,-108 641,-108 635,-102 635,-96 635,-96 635,-84 635,-84 635,-78 641,-72 647,-72 647,-72 716,-72 716,-72 722,-72 728,-78 728,-84 728,-84 728,-96 728,-96 728,-102 722,-108 716,-108"/>
<text text-anchor="middle" x="681.5" y="-87.5" font-family="sans" font-size="10.00">metadata_plots</text>
</g>
<!-- 1&#45;&gt;7 -->
<g id="edge21" class="edge">
<title>1&#45;&gt;7</title>
<path fill="none" stroke="grey" stroke-width="2" d="M408.19,-154.43C462.61,-143.45 570.45,-121.42 624.98,-107.98"/>
<polygon fill="grey" stroke="grey" stroke-width="2" points="625.99,-111.33 634.83,-105.49 624.28,-104.55 625.99,-111.33"/>
</g>
<!-- 8 -->
<g id="node9" class="node">
<title>8</title>
<path fill="none" stroke="#61d856" stroke-width="2" d="M605,-108C605,-108 504,-108 504,-108 498,-108 492,-102 492,-96 492,-96 492,-84 492,-84 492,-78 498,-72 504,-72 504,-72 605,-72 605,-72 611,-72 617,-78 617,-84 617,-84 617,-96 617,-96 617,-102 611,-108 605,-108"/>
<text text-anchor="middle" x="554.5" y="-87.5" font-family="sans" font-size="10.00">ridge_plot_normalized</text>
</g>
<!-- 1&#45;&gt;8 -->
<g id="edge25" class="edge">
<title>1&#45;&gt;8</title>
<path fill="none" stroke="grey" stroke-width="2" d="M408.33,-148.16C434.29,-138.01 471.05,-123.64 501.21,-111.84"/>
<polygon fill="grey" stroke="grey" stroke-width="2" points="502.71,-115.01 510.74,-108.11 500.16,-108.49 502.71,-115.01"/>
</g>
<!-- 9 -->
<g id="node10" class="node">
<title>9</title>
<path fill="none" stroke="#56d8b9" stroke-width="2" d="M211.5,-108C211.5,-108 107.5,-108 107.5,-108 101.5,-108 95.5,-102 95.5,-96 95.5,-96 95.5,-84 95.5,-84 95.5,-78 101.5,-72 107.5,-72 107.5,-72 211.5,-72 211.5,-72 217.5,-72 223.5,-78 223.5,-84 223.5,-84 223.5,-96 223.5,-96 223.5,-102 217.5,-108 211.5,-108"/>
<text text-anchor="middle" x="159.5" y="-87.5" font-family="sans" font-size="10.00">violin_plot_normalized</text>
</g>
<!-- 1&#45;&gt;9 -->
<g id="edge26" class="edge">
<title>1&#45;&gt;9</title>
<path fill="none" stroke="grey" stroke-width="2" d="M342.69,-150.37C310.64,-139.98 261.04,-123.91 221.53,-111.1"/>
<polygon fill="grey" stroke="grey" stroke-width="2" points="222.57,-107.76 211.98,-108.01 220.42,-114.42 222.57,-107.76"/>
</g>
<!-- 10 -->
<g id="node11" class="node">
<title>10</title>
<path fill="none" stroke="#56c1d8" stroke-width="2" d="M285.5,-108C285.5,-108 253.5,-108 253.5,-108 247.5,-108 241.5,-102 241.5,-96 241.5,-96 241.5,-84 241.5,-84 241.5,-78 247.5,-72 253.5,-72 253.5,-72 285.5,-72 285.5,-72 291.5,-72 297.5,-78 297.5,-84 297.5,-84 297.5,-96 297.5,-96 297.5,-102 291.5,-108 285.5,-108"/>
<text text-anchor="middle" x="269.5" y="-87.5" font-family="sans" font-size="10.00">dot_plot</text>
</g>
<!-- 1&#45;&gt;10 -->
<g id="edge27" class="edge">
<title>1&#45;&gt;10</title>
<path fill="none" stroke="grey" stroke-width="2" d="M349.57,-143.88C335.84,-134.81 318.79,-123.55 303.96,-113.76"/>
<polygon fill="grey" stroke="grey" stroke-width="2" points="305.8,-110.78 295.53,-108.19 301.95,-116.62 305.8,-110.78"/>
</g>
<!-- 11 -->
<g id="node12" class="node">
<title>11</title>
<path fill="none" stroke="#d85656" stroke-width="2" d="M423.5,-108C423.5,-108 327.5,-108 327.5,-108 321.5,-108 315.5,-102 315.5,-96 315.5,-96 315.5,-84 315.5,-84 315.5,-78 321.5,-72 327.5,-72 327.5,-72 423.5,-72 423.5,-72 429.5,-72 435.5,-78 435.5,-84 435.5,-84 435.5,-96 435.5,-96 435.5,-102 429.5,-108 423.5,-108"/>
<text text-anchor="middle" x="375.5" y="-87.5" font-family="sans" font-size="10.00">heatmap_normalized</text>
</g>
<!-- 1&#45;&gt;11 -->
<g id="edge28" class="edge">
<title>1&#45;&gt;11</title>
<path fill="none" stroke="grey" stroke-width="2" d="M375.5,-143.7C375.5,-135.98 375.5,-126.71 375.5,-118.11"/>
<polygon fill="grey" stroke="grey" stroke-width="2" points="379,-118.1 375.5,-108.1 372,-118.1 379,-118.1"/>
</g>
<!-- 2 -->
<g id="node3" class="node">
<title>2</title>
<path fill="none" stroke="#d8ac56" stroke-width="2" d="M397,-252C397,-252 354,-252 354,-252 348,-252 342,-246 342,-240 342,-240 342,-228 342,-228 342,-222 348,-216 354,-216 354,-216 397,-216 397,-216 403,-216 409,-222 409,-228 409,-228 409,-240 409,-240 409,-246 403,-252 397,-252"/>
<text text-anchor="middle" x="375.5" y="-231.5" font-family="sans" font-size="10.00">filter_cells</text>
</g>
<!-- 2&#45;&gt;1 -->
<g id="edge12" class="edge">
<title>2&#45;&gt;1</title>
<path fill="none" stroke="grey" stroke-width="2" d="M375.5,-215.7C375.5,-207.98 375.5,-198.71 375.5,-190.11"/>
<polygon fill="grey" stroke="grey" stroke-width="2" points="379,-190.1 375.5,-180.1 372,-190.1 379,-190.1"/>
</g>
<!-- 2&#45;&gt;6 -->
<g id="edge20" class="edge">
<title>2&#45;&gt;6</title>
<path fill="none" stroke="grey" stroke-width="2" d="M349.29,-215.88C318.36,-196.28 264.89,-164.3 215.5,-144 163.24,-122.52 145.1,-125.55 86.89,-107.97"/>
<polygon fill="grey" stroke="grey" stroke-width="2" points="87.78,-104.58 77.2,-104.96 85.71,-111.26 87.78,-104.58"/>
</g>
<!-- 2&#45;&gt;7 -->
<g id="edge24" class="edge">
<title>2&#45;&gt;7</title>
<path fill="none" stroke="grey" stroke-width="2" d="M399.99,-215.99C428.62,-196.66 477.9,-165.05 523.5,-144 541.89,-135.51 587.41,-120.46 624.9,-108.56"/>
<polygon fill="grey" stroke="grey" stroke-width="2" points="626.25,-111.8 634.73,-105.45 624.14,-105.13 626.25,-111.8"/>
</g>
<!-- 3 -->
<g id="node4" class="node">
<title>3</title>
<path fill="none" stroke="#d8c356" stroke-width="2" d="M389.5,-396C389.5,-396 359.5,-396 359.5,-396 353.5,-396 347.5,-390 347.5,-384 347.5,-384 347.5,-372 347.5,-372 347.5,-366 353.5,-360 359.5,-360 359.5,-360 389.5,-360 389.5,-360 395.5,-360 401.5,-366 401.5,-372 401.5,-372 401.5,-384 401.5,-384 401.5,-390 395.5,-396 389.5,-396"/>
<text text-anchor="middle" x="374.5" y="-375.5" font-family="sans" font-size="10.00">merge</text>
</g>
<!-- 3&#45;&gt;2 -->
<g id="edge13" class="edge">
<title>3&#45;&gt;2</title>
<path fill="none" stroke="grey" stroke-width="2" d="M371.25,-359.89C369.45,-349.54 367.41,-336.06 366.5,-324 365.3,-308.04 365.16,-303.94 366.5,-288 367.22,-279.5 368.57,-270.31 370.01,-262.01"/>
<polygon fill="grey" stroke="grey" stroke-width="2" points="373.47,-262.56 371.85,-252.09 366.59,-261.29 373.47,-262.56"/>
</g>
<!-- 5 -->
<g id="node6" class="node">
<title>5</title>
<path fill="none" stroke="#56a9d8" stroke-width="2" d="M417.5,-324C417.5,-324 387.5,-324 387.5,-324 381.5,-324 375.5,-318 375.5,-312 375.5,-312 375.5,-300 375.5,-300 375.5,-294 381.5,-288 387.5,-288 387.5,-288 417.5,-288 417.5,-288 423.5,-288 429.5,-294 429.5,-300 429.5,-300 429.5,-312 429.5,-312 429.5,-318 423.5,-324 417.5,-324"/>
<text text-anchor="middle" x="402.5" y="-303.5" font-family="sans" font-size="10.00">split</text>
</g>
<!-- 3&#45;&gt;5 -->
<g id="edge16" class="edge">
<title>3&#45;&gt;5</title>
<path fill="none" stroke="grey" stroke-width="2" d="M381.42,-359.7C384.57,-351.81 388.38,-342.3 391.88,-333.55"/>
<polygon fill="grey" stroke="grey" stroke-width="2" points="395.19,-334.69 395.66,-324.1 388.69,-332.09 395.19,-334.69"/>
</g>
<!-- 3&#45;&gt;6 -->
<g id="edge18" class="edge">
<title>3&#45;&gt;6</title>
<path fill="none" stroke="grey" stroke-width="2" d="M351.33,-359.9C306.74,-326.69 206.43,-250.54 127.5,-180 104.26,-159.23 79.29,-133.98 61.73,-115.69"/>
<polygon fill="grey" stroke="grey" stroke-width="2" points="64.12,-113.12 54.69,-108.31 59.06,-117.96 64.12,-113.12"/>
</g>
<!-- 3&#45;&gt;7 -->
<g id="edge22" class="edge">
<title>3&#45;&gt;7</title>
<path fill="none" stroke="grey" stroke-width="2" d="M395.38,-359.96C407.95,-349.65 424.23,-336.17 438.5,-324 512.31,-261.06 533.73,-248.4 602.5,-180 623.21,-159.41 645.13,-134.42 660.62,-116.17"/>
<polygon fill="grey" stroke="grey" stroke-width="2" points="663.48,-118.2 667.25,-108.3 658.13,-113.69 663.48,-118.2"/>
</g>
<!-- 4 -->
<g id="node5" class="node">
<title>4</title>
<path fill="none" stroke="#56d882" stroke-width="2" d="M389.5,-468C389.5,-468 359.5,-468 359.5,-468 353.5,-468 347.5,-462 347.5,-456 347.5,-456 347.5,-444 347.5,-444 347.5,-438 353.5,-432 359.5,-432 359.5,-432 389.5,-432 389.5,-432 395.5,-432 401.5,-438 401.5,-444 401.5,-444 401.5,-456 401.5,-456 401.5,-462 395.5,-468 389.5,-468"/>
<text text-anchor="middle" x="374.5" y="-447.5" font-family="sans" font-size="10.00">prepare</text>
</g>
<!-- 4&#45;&gt;3 -->
<g id="edge15" class="edge">
<title>4&#45;&gt;3</title>
<path fill="none" stroke="grey" stroke-width="2" d="M374.5,-431.7C374.5,-423.98 374.5,-414.71 374.5,-406.11"/>
<polygon fill="grey" stroke="grey" stroke-width="2" points="378,-406.1 374.5,-396.1 371,-406.1 378,-406.1"/>
</g>
<!-- 5&#45;&gt;2 -->
<g id="edge14" class="edge">
<title>5&#45;&gt;2</title>
<path fill="none" stroke="grey" stroke-width="2" d="M395.83,-287.7C392.79,-279.81 389.12,-270.3 385.74,-261.55"/>
<polygon fill="grey" stroke="grey" stroke-width="2" points="388.96,-260.17 382.1,-252.1 382.43,-262.69 388.96,-260.17"/>
</g>
<!-- 5&#45;&gt;6 -->
<g id="edge19" class="edge">
<title>5&#45;&gt;6</title>
<path fill="none" stroke="grey" stroke-width="2" d="M375.44,-289.09C311.37,-251.42 150.26,-156.7 76.47,-113.32"/>
<polygon fill="grey" stroke="grey" stroke-width="2" points="77.89,-110.1 67.5,-108.05 74.34,-116.13 77.89,-110.1"/>
</g>
<!-- 5&#45;&gt;7 -->
<g id="edge23" class="edge">
<title>5&#45;&gt;7</title>
<path fill="none" stroke="grey" stroke-width="2" d="M424.86,-287.85C474.55,-249.74 594.22,-157.95 650.83,-114.52"/>
<polygon fill="grey" stroke="grey" stroke-width="2" points="653.23,-117.1 659.03,-108.23 648.97,-111.54 653.23,-117.1"/>
</g>
<!-- 6&#45;&gt;0 -->
<g id="edge7" class="edge">
<title>6&#45;&gt;0</title>
<path fill="none" stroke="grey" stroke-width="2" d="M77.05,-74.5C80.22,-73.56 83.4,-72.71 86.5,-72 244.16,-35.65 437.69,-23.83 517.45,-20.34"/>
<polygon fill="grey" stroke="grey" stroke-width="2" points="517.65,-23.83 527.49,-19.91 517.35,-16.84 517.65,-23.83"/>
</g>
<!-- 7&#45;&gt;0 -->
<g id="edge6" class="edge">
<title>7&#45;&gt;0</title>
<path fill="none" stroke="grey" stroke-width="2" d="M650.43,-71.88C632.38,-61.93 609.56,-49.35 590.7,-38.95"/>
<polygon fill="grey" stroke="grey" stroke-width="2" points="592.24,-35.81 581.8,-34.05 588.87,-41.94 592.24,-35.81"/>
</g>
<!-- 8&#45;&gt;0 -->
<g id="edge11" class="edge">
<title>8&#45;&gt;0</title>
<path fill="none" stroke="grey" stroke-width="2" d="M554.5,-71.7C554.5,-63.98 554.5,-54.71 554.5,-46.11"/>
<polygon fill="grey" stroke="grey" stroke-width="2" points="558,-46.1 554.5,-36.1 551,-46.1 558,-46.1"/>
</g>
<!-- 9&#45;&gt;0 -->
<g id="edge9" class="edge">
<title>9&#45;&gt;0</title>
<path fill="none" stroke="grey" stroke-width="2" d="M223.54,-73.84C226.57,-73.2 229.56,-72.58 232.5,-72 334.99,-51.65 456.93,-33.12 517.1,-24.34"/>
<polygon fill="grey" stroke="grey" stroke-width="2" points="517.86,-27.77 527.25,-22.87 516.85,-20.84 517.86,-27.77"/>
</g>
<!-- 10&#45;&gt;0 -->
<g id="edge2" class="edge">
<title>10&#45;&gt;0</title>
<path fill="none" stroke="grey" stroke-width="2" d="M297.52,-75.35C300.52,-74.13 303.55,-72.98 306.5,-72 379.3,-47.83 467.87,-32.01 517.03,-24.37"/>
<polygon fill="grey" stroke="grey" stroke-width="2" points="517.83,-27.79 527.19,-22.82 516.78,-20.87 517.83,-27.79"/>
</g>
<!-- 11&#45;&gt;0 -->
<g id="edge1" class="edge">
<title>11&#45;&gt;0</title>
<path fill="none" stroke="grey" stroke-width="2" d="M419.29,-71.88C449.47,-60.07 489.14,-44.56 517.69,-33.4"/>
<polygon fill="grey" stroke="grey" stroke-width="2" points="519.25,-36.54 527.29,-29.64 516.7,-30.02 519.25,-36.54"/>
</g>
<!-- 12 -->
<g id="node13" class="node">
<title>12</title>
<path fill="none" stroke="#ced856" stroke-width="2" d="M805,-108C805,-108 758,-108 758,-108 752,-108 746,-102 746,-96 746,-96 746,-84 746,-84 746,-78 752,-72 758,-72 758,-72 805,-72 805,-72 811,-72 817,-78 817,-84 817,-84 817,-96 817,-96 817,-102 811,-108 805,-108"/>
<text text-anchor="middle" x="781.5" y="-87.5" font-family="sans" font-size="10.00">env_export</text>
</g>
<!-- 12&#45;&gt;0 -->
<g id="edge8" class="edge">
<title>12&#45;&gt;0</title>
<path fill="none" stroke="grey" stroke-width="2" d="M745.73,-75.2C742.62,-74.09 739.51,-73.01 736.5,-72 686.71,-55.37 628.31,-38.89 591.36,-28.83"/>
<polygon fill="grey" stroke="grey" stroke-width="2" points="592.1,-25.4 581.53,-26.16 590.27,-32.16 592.1,-25.4"/>
</g>
<!-- 13 -->
<g id="node14" class="node">
<title>13</title>
<path fill="none" stroke="#80d856" stroke-width="2" d="M921.5,-108C921.5,-108 847.5,-108 847.5,-108 841.5,-108 835.5,-102 835.5,-96 835.5,-96 835.5,-84 835.5,-84 835.5,-78 841.5,-72 847.5,-72 847.5,-72 921.5,-72 921.5,-72 927.5,-72 933.5,-78 933.5,-84 933.5,-84 933.5,-96 933.5,-96 933.5,-102 927.5,-108 921.5,-108"/>
<text text-anchor="middle" x="884.5" y="-87.5" font-family="sans" font-size="10.00">gene_list_export</text>
</g>
<!-- 13&#45;&gt;0 -->
<g id="edge10" class="edge">
<title>13&#45;&gt;0</title>
<path fill="none" stroke="grey" stroke-width="2" d="M835.22,-74.22C832.28,-73.44 829.35,-72.69 826.5,-72 743.23,-51.73 644.16,-34.01 591.58,-25.1"/>
<polygon fill="grey" stroke="grey" stroke-width="2" points="592.15,-21.65 581.71,-23.44 590.99,-28.55 592.15,-21.65"/>
</g>
<!-- 14 -->
<g id="node15" class="node">
<title>14</title>
<path fill="none" stroke="#568ad8" stroke-width="2" d="M1023,-108C1023,-108 964,-108 964,-108 958,-108 952,-102 952,-96 952,-96 952,-84 952,-84 952,-78 958,-72 964,-72 964,-72 1023,-72 1023,-72 1029,-72 1035,-78 1035,-84 1035,-84 1035,-96 1035,-96 1035,-102 1029,-108 1023,-108"/>
<text text-anchor="middle" x="993.5" y="-87.5" font-family="sans" font-size="10.00">config_export</text>
</g>
<!-- 14&#45;&gt;0 -->
<g id="edge4" class="edge">
<title>14&#45;&gt;0</title>
<path fill="none" stroke="grey" stroke-width="2" d="M951.93,-74.44C948.76,-73.55 945.59,-72.72 942.5,-72 815.59,-42.45 661.23,-27.44 591.66,-21.76"/>
<polygon fill="grey" stroke="grey" stroke-width="2" points="591.87,-18.27 581.63,-20.96 591.32,-25.25 591.87,-18.27"/>
</g>
<!-- 15 -->
<g id="node16" class="node">
<title>15</title>
<path fill="none" stroke="#56d863" stroke-width="2" d="M1122,-108C1122,-108 1065,-108 1065,-108 1059,-108 1053,-102 1053,-96 1053,-96 1053,-84 1053,-84 1053,-78 1059,-72 1065,-72 1065,-72 1122,-72 1122,-72 1128,-72 1134,-78 1134,-84 1134,-84 1134,-96 1134,-96 1134,-102 1128,-108 1122,-108"/>
<text text-anchor="middle" x="1093.5" y="-87.5" font-family="sans" font-size="10.00">annot_export</text>
</g>
<!-- 15&#45;&gt;0 -->
<g id="edge3" class="edge">
<title>15&#45;&gt;0</title>
<path fill="none" stroke="grey" stroke-width="2" d="M1052.79,-74.1C1050.01,-73.32 1047.22,-72.61 1044.5,-72 878.34,-34.7 674.37,-23.36 591.82,-20.16"/>
<polygon fill="grey" stroke="grey" stroke-width="2" points="591.8,-16.66 581.67,-19.79 591.54,-23.66 591.8,-16.66"/>
</g>
</g>
</svg>
