<?xml version="1.0" encoding="UTF-8" standalone="no"?>
<!DOCTYPE svg PUBLIC "-//W3C//DTD SVG 1.1//EN"
 "http://www.w3.org/Graphics/SVG/1.1/DTD/svg11.dtd">
<!-- Generated by graphviz version 2.47.2 (20210527.1257)
 -->
<!-- Title: snakemake_dag Pages: 1 -->
<svg width="982pt" height="476pt"
 viewBox="0.00 0.00 981.50 476.00" xmlns="http://www.w3.org/2000/svg" xmlns:xlink="http://www.w3.org/1999/xlink">
<g id="graph0" class="graph" transform="scale(1 1) rotate(0) translate(4 472)">
<title>snakemake_dag</title>
<polygon fill="white" stroke="transparent" points="-4,4 -4,-472 977.5,-472 977.5,4 -4,4"/>
<!-- 0 -->
<g id="node1" class="node">
<title>0</title>
<path fill="none" stroke="#8fd856" stroke-width="2" d="M554.5,-36C554.5,-36 524.5,-36 524.5,-36 518.5,-36 512.5,-30 512.5,-24 512.5,-24 512.5,-12 512.5,-12 512.5,-6 518.5,0 524.5,0 524.5,0 554.5,0 554.5,0 560.5,0 566.5,-6 566.5,-12 566.5,-12 566.5,-24 566.5,-24 566.5,-30 560.5,-36 554.5,-36"/>
<text text-anchor="middle" x="539.5" y="-15.5" font-family="sans" font-size="10.00">all</text>
</g>
<!-- 1 -->
<g id="node2" class="node">
<title>1</title>
<path fill="none" stroke="#afd856" stroke-width="2" d="M288.5,-180C288.5,-180 258.5,-180 258.5,-180 252.5,-180 246.5,-174 246.5,-168 246.5,-168 246.5,-156 246.5,-156 246.5,-150 252.5,-144 258.5,-144 258.5,-144 288.5,-144 288.5,-144 294.5,-144 300.5,-150 300.5,-156 300.5,-156 300.5,-168 300.5,-168 300.5,-174 294.5,-180 288.5,-180"/>
<text text-anchor="middle" x="273.5" y="-159.5" font-family="sans" font-size="10.00">correct</text>
</g>
<!-- 1&#45;&gt;0 -->
<g id="edge5" class="edge">
<title>1&#45;&gt;0</title>
<path fill="none" stroke="grey" stroke-width="2" d="M272.05,-143.69C271.39,-123.63 273.63,-90.89 292.5,-72 321.58,-42.89 440.74,-27.98 502.29,-22.09"/>
<polygon fill="grey" stroke="grey" stroke-width="2" points="502.74,-25.57 512.37,-21.16 502.09,-18.6 502.74,-25.57"/>
</g>
<!-- 7 -->
<g id="node8" class="node">
<title>7</title>
<path fill="none" stroke="#56d8a9" stroke-width="2" d="M65,-108C65,-108 12,-108 12,-108 6,-108 0,-102 0,-96 0,-96 0,-84 0,-84 0,-78 6,-72 12,-72 12,-72 65,-72 65,-72 71,-72 77,-78 77,-84 77,-84 77,-96 77,-96 77,-102 71,-108 65,-108"/>
<text text-anchor="middle" x="38.5" y="-87.5" font-family="sans" font-size="10.00">save_counts</text>
</g>
<!-- 1&#45;&gt;7 -->
<g id="edge20" class="edge">
<title>1&#45;&gt;7</title>
<path fill="none" stroke="grey" stroke-width="2" d="M246.2,-147.48C243.29,-146.23 240.36,-145.04 237.5,-144 187.36,-125.65 127.99,-110.68 87.23,-101.38"/>
<polygon fill="grey" stroke="grey" stroke-width="2" points="87.81,-97.92 77.29,-99.14 86.27,-104.75 87.81,-97.92"/>
</g>
<!-- 13 -->
<g id="node14" class="node">
<title>13</title>
<path fill="none" stroke="#d88d56" stroke-width="2" d="M405.5,-108C405.5,-108 313.5,-108 313.5,-108 307.5,-108 301.5,-102 301.5,-96 301.5,-96 301.5,-84 301.5,-84 301.5,-78 307.5,-72 313.5,-72 313.5,-72 405.5,-72 405.5,-72 411.5,-72 417.5,-78 417.5,-84 417.5,-84 417.5,-96 417.5,-96 417.5,-102 411.5,-108 405.5,-108"/>
<text text-anchor="middle" x="359.5" y="-87.5" font-family="sans" font-size="10.00">ridge_plot_corrected</text>
</g>
<!-- 1&#45;&gt;13 -->
<g id="edge30" class="edge">
<title>1&#45;&gt;13</title>
<path fill="none" stroke="grey" stroke-width="2" d="M294.76,-143.7C305.59,-134.88 318.92,-124.03 330.66,-114.47"/>
<polygon fill="grey" stroke="grey" stroke-width="2" points="332.94,-117.13 338.49,-108.1 328.52,-111.7 332.94,-117.13"/>
</g>
<!-- 14 -->
<g id="node15" class="node">
<title>14</title>
<path fill="none" stroke="#56c9d8" stroke-width="2" d="M543,-108C543,-108 448,-108 448,-108 442,-108 436,-102 436,-96 436,-96 436,-84 436,-84 436,-78 442,-72 448,-72 448,-72 543,-72 543,-72 549,-72 555,-78 555,-84 555,-84 555,-96 555,-96 555,-102 549,-108 543,-108"/>
<text text-anchor="middle" x="495.5" y="-87.5" font-family="sans" font-size="10.00">violin_plot_corrected</text>
</g>
<!-- 1&#45;&gt;14 -->
<g id="edge31" class="edge">
<title>1&#45;&gt;14</title>
<path fill="none" stroke="grey" stroke-width="2" d="M300.82,-147.53C303.72,-146.27 306.65,-145.07 309.5,-144 330.98,-135.93 382.53,-121.37 425.93,-109.55"/>
<polygon fill="grey" stroke="grey" stroke-width="2" points="426.89,-112.92 435.62,-106.92 425.05,-106.16 426.89,-112.92"/>
</g>
<!-- 15 -->
<g id="node16" class="node">
<title>15</title>
<path fill="none" stroke="#56d892" stroke-width="2" d="M233,-108C233,-108 146,-108 146,-108 140,-108 134,-102 134,-96 134,-96 134,-84 134,-84 134,-78 140,-72 146,-72 146,-72 233,-72 233,-72 239,-72 245,-78 245,-84 245,-84 245,-96 245,-96 245,-102 239,-108 233,-108"/>
<text text-anchor="middle" x="189.5" y="-87.5" font-family="sans" font-size="10.00">heatmap_corrected</text>
</g>
<!-- 1&#45;&gt;15 -->
<g id="edge32" class="edge">
<title>1&#45;&gt;15</title>
<path fill="none" stroke="grey" stroke-width="2" d="M252.74,-143.7C242.26,-134.97 229.39,-124.24 218,-114.75"/>
<polygon fill="grey" stroke="grey" stroke-width="2" points="219.95,-111.82 210.03,-108.1 215.47,-117.19 219.95,-111.82"/>
</g>
<!-- 2 -->
<g id="node3" class="node">
<title>2</title>
<path fill="none" stroke="#56a9d8" stroke-width="2" d="M415,-252C415,-252 374,-252 374,-252 368,-252 362,-246 362,-240 362,-240 362,-228 362,-228 362,-222 368,-216 374,-216 374,-216 415,-216 415,-216 421,-216 427,-222 427,-228 427,-228 427,-240 427,-240 427,-246 421,-252 415,-252"/>
<text text-anchor="middle" x="394.5" y="-231.5" font-family="sans" font-size="10.00">normalize</text>
</g>
<!-- 2&#45;&gt;1 -->
<g id="edge13" class="edge">
<title>2&#45;&gt;1</title>
<path fill="none" stroke="grey" stroke-width="2" d="M364.9,-215.88C348.22,-206.23 327.25,-194.1 309.61,-183.89"/>
<polygon fill="grey" stroke="grey" stroke-width="2" points="311.13,-180.73 300.73,-178.75 307.63,-186.79 311.13,-180.73"/>
</g>
<!-- 2&#45;&gt;7 -->
<g id="edge19" class="edge">
<title>2&#45;&gt;7</title>
<path fill="none" stroke="grey" stroke-width="2" d="M361.83,-230.31C294.42,-224.25 142.6,-207.86 99.5,-180 76.28,-164.99 59.55,-137.7 49.56,-117.28"/>
<polygon fill="grey" stroke="grey" stroke-width="2" points="52.71,-115.75 45.31,-108.17 46.36,-118.71 52.71,-115.75"/>
</g>
<!-- 8 -->
<g id="node9" class="node">
<title>8</title>
<path fill="none" stroke="#d8cb56" stroke-width="2" d="M764,-180C764,-180 695,-180 695,-180 689,-180 683,-174 683,-168 683,-168 683,-156 683,-156 683,-150 689,-144 695,-144 695,-144 764,-144 764,-144 770,-144 776,-150 776,-156 776,-156 776,-168 776,-168 776,-174 770,-180 764,-180"/>
<text text-anchor="middle" x="729.5" y="-159.5" font-family="sans" font-size="10.00">metadata_plots</text>
</g>
<!-- 2&#45;&gt;8 -->
<g id="edge23" class="edge">
<title>2&#45;&gt;8</title>
<path fill="none" stroke="grey" stroke-width="2" d="M427.01,-227.28C486.63,-216.71 612.19,-194.11 672.98,-179.94"/>
<polygon fill="grey" stroke="grey" stroke-width="2" points="673.95,-183.31 682.85,-177.57 672.31,-176.5 673.95,-183.31"/>
</g>
<!-- 9 -->
<g id="node10" class="node">
<title>9</title>
<path fill="none" stroke="#59d856" stroke-width="2" d="M432,-180C432,-180 331,-180 331,-180 325,-180 319,-174 319,-168 319,-168 319,-156 319,-156 319,-150 325,-144 331,-144 331,-144 432,-144 432,-144 438,-144 444,-150 444,-156 444,-156 444,-168 444,-168 444,-174 438,-180 432,-180"/>
<text text-anchor="middle" x="381.5" y="-159.5" font-family="sans" font-size="10.00">ridge_plot_normalized</text>
</g>
<!-- 2&#45;&gt;9 -->
<g id="edge26" class="edge">
<title>2&#45;&gt;9</title>
<path fill="none" stroke="grey" stroke-width="2" d="M391.29,-215.7C389.85,-207.98 388.13,-198.71 386.54,-190.11"/>
<polygon fill="grey" stroke="grey" stroke-width="2" points="389.94,-189.3 384.68,-180.1 383.06,-190.58 389.94,-189.3"/>
</g>
<!-- 10 -->
<g id="node11" class="node">
<title>10</title>
<path fill="none" stroke="#5692d8" stroke-width="2" d="M578.5,-180C578.5,-180 474.5,-180 474.5,-180 468.5,-180 462.5,-174 462.5,-168 462.5,-168 462.5,-156 462.5,-156 462.5,-150 468.5,-144 474.5,-144 474.5,-144 578.5,-144 578.5,-144 584.5,-144 590.5,-150 590.5,-156 590.5,-156 590.5,-168 590.5,-168 590.5,-174 584.5,-180 578.5,-180"/>
<text text-anchor="middle" x="526.5" y="-159.5" font-family="sans" font-size="10.00">violin_plot_normalized</text>
</g>
<!-- 2&#45;&gt;10 -->
<g id="edge27" class="edge">
<title>2&#45;&gt;10</title>
<path fill="none" stroke="grey" stroke-width="2" d="M426.79,-215.88C444.37,-206.55 466.31,-194.92 485.13,-184.94"/>
<polygon fill="grey" stroke="grey" stroke-width="2" points="486.89,-187.97 494.09,-180.19 483.61,-181.78 486.89,-187.97"/>
</g>
<!-- 11 -->
<g id="node12" class="node">
<title>11</title>
<path fill="none" stroke="#d85656" stroke-width="2" d="M652.5,-180C652.5,-180 620.5,-180 620.5,-180 614.5,-180 608.5,-174 608.5,-168 608.5,-168 608.5,-156 608.5,-156 608.5,-150 614.5,-144 620.5,-144 620.5,-144 652.5,-144 652.5,-144 658.5,-144 664.5,-150 664.5,-156 664.5,-156 664.5,-168 664.5,-168 664.5,-174 658.5,-180 652.5,-180"/>
<text text-anchor="middle" x="636.5" y="-159.5" font-family="sans" font-size="10.00">dot_plot</text>
</g>
<!-- 2&#45;&gt;11 -->
<g id="edge28" class="edge">
<title>2&#45;&gt;11</title>
<path fill="none" stroke="grey" stroke-width="2" d="M427.35,-226.4C466.37,-218.14 533.44,-202.67 598.8,-179.93"/>
<polygon fill="grey" stroke="grey" stroke-width="2" points="600.17,-183.16 608.43,-176.52 597.84,-176.56 600.17,-183.16"/>
</g>
<!-- 12 -->
<g id="node13" class="node">
<title>12</title>
<path fill="none" stroke="#70d856" stroke-width="2" d="M216.5,-180C216.5,-180 120.5,-180 120.5,-180 114.5,-180 108.5,-174 108.5,-168 108.5,-168 108.5,-156 108.5,-156 108.5,-150 114.5,-144 120.5,-144 120.5,-144 216.5,-144 216.5,-144 222.5,-144 228.5,-150 228.5,-156 228.5,-156 228.5,-168 228.5,-168 228.5,-174 222.5,-180 216.5,-180"/>
<text text-anchor="middle" x="168.5" y="-159.5" font-family="sans" font-size="10.00">heatmap_normalized</text>
</g>
<!-- 2&#45;&gt;12 -->
<g id="edge29" class="edge">
<title>2&#45;&gt;12</title>
<path fill="none" stroke="grey" stroke-width="2" d="M361.64,-222.82C328.13,-212.44 275.26,-196.07 233.3,-183.07"/>
<polygon fill="grey" stroke="grey" stroke-width="2" points="234.3,-179.72 223.71,-180.1 232.23,-186.4 234.3,-179.72"/>
</g>
<!-- 3 -->
<g id="node4" class="node">
<title>3</title>
<path fill="none" stroke="#56d873" stroke-width="2" d="M473,-324C473,-324 430,-324 430,-324 424,-324 418,-318 418,-312 418,-312 418,-300 418,-300 418,-294 424,-288 430,-288 430,-288 473,-288 473,-288 479,-288 485,-294 485,-300 485,-300 485,-312 485,-312 485,-318 479,-324 473,-324"/>
<text text-anchor="middle" x="451.5" y="-303.5" font-family="sans" font-size="10.00">filter_cells</text>
</g>
<!-- 3&#45;&gt;2 -->
<g id="edge14" class="edge">
<title>3&#45;&gt;2</title>
<path fill="none" stroke="grey" stroke-width="2" d="M437.41,-287.7C430.58,-279.3 422.24,-269.07 414.74,-259.86"/>
<polygon fill="grey" stroke="grey" stroke-width="2" points="417.46,-257.65 408.43,-252.1 412.03,-262.07 417.46,-257.65"/>
</g>
<!-- 3&#45;&gt;7 -->
<g id="edge21" class="edge">
<title>3&#45;&gt;7</title>
<path fill="none" stroke="grey" stroke-width="2" d="M417.98,-304.53C342.71,-301.57 159.25,-283.52 61.5,-180 45.88,-163.45 40.52,-137.73 38.84,-118.18"/>
<polygon fill="grey" stroke="grey" stroke-width="2" points="42.33,-117.83 38.25,-108.06 35.34,-118.24 42.33,-117.83"/>
</g>
<!-- 3&#45;&gt;8 -->
<g id="edge25" class="edge">
<title>3&#45;&gt;8</title>
<path fill="none" stroke="grey" stroke-width="2" d="M467.74,-287.9C487.47,-268.02 522.61,-235.48 558.5,-216 561.17,-214.55 624.27,-195.13 673.05,-180.21"/>
<polygon fill="grey" stroke="grey" stroke-width="2" points="674.36,-183.47 682.9,-177.2 672.31,-176.78 674.36,-183.47"/>
</g>
<!-- 4 -->
<g id="node5" class="node">
<title>4</title>
<path fill="none" stroke="#c6d856" stroke-width="2" d="M570.5,-396C570.5,-396 540.5,-396 540.5,-396 534.5,-396 528.5,-390 528.5,-384 528.5,-384 528.5,-372 528.5,-372 528.5,-366 534.5,-360 540.5,-360 540.5,-360 570.5,-360 570.5,-360 576.5,-360 582.5,-366 582.5,-372 582.5,-372 582.5,-384 582.5,-384 582.5,-390 576.5,-396 570.5,-396"/>
<text text-anchor="middle" x="555.5" y="-375.5" font-family="sans" font-size="10.00">merge</text>
</g>
<!-- 4&#45;&gt;3 -->
<g id="edge16" class="edge">
<title>4&#45;&gt;3</title>
<path fill="none" stroke="grey" stroke-width="2" d="M530.06,-359.88C516.71,-350.89 500.18,-339.76 485.72,-330.03"/>
<polygon fill="grey" stroke="grey" stroke-width="2" points="487.29,-326.87 477.04,-324.19 483.38,-332.68 487.29,-326.87"/>
</g>
<!-- 4&#45;&gt;8 -->
<g id="edge24" class="edge">
<title>4&#45;&gt;8</title>
<path fill="none" stroke="grey" stroke-width="2" d="M569.45,-359.85C600.05,-322.21 673.23,-232.2 709.05,-188.15"/>
<polygon fill="grey" stroke="grey" stroke-width="2" points="711.9,-190.2 715.49,-180.23 706.46,-185.78 711.9,-190.2"/>
</g>
<!-- 5 -->
<g id="node6" class="node">
<title>5</title>
<path fill="none" stroke="#5673d8" stroke-width="2" d="M570.5,-468C570.5,-468 540.5,-468 540.5,-468 534.5,-468 528.5,-462 528.5,-456 528.5,-456 528.5,-444 528.5,-444 528.5,-438 534.5,-432 540.5,-432 540.5,-432 570.5,-432 570.5,-432 576.5,-432 582.5,-438 582.5,-444 582.5,-444 582.5,-456 582.5,-456 582.5,-462 576.5,-468 570.5,-468"/>
<text text-anchor="middle" x="555.5" y="-447.5" font-family="sans" font-size="10.00">prepare</text>
</g>
<!-- 5&#45;&gt;4 -->
<g id="edge17" class="edge">
<title>5&#45;&gt;4</title>
<path fill="none" stroke="grey" stroke-width="2" d="M555.5,-431.7C555.5,-423.98 555.5,-414.71 555.5,-406.11"/>
<polygon fill="grey" stroke="grey" stroke-width="2" points="559,-406.1 555.5,-396.1 552,-406.1 559,-406.1"/>
</g>
<!-- 6 -->
<g id="node7" class="node">
<title>6</title>
<path fill="none" stroke="#d87556" stroke-width="2" d="M466.5,-396C466.5,-396 436.5,-396 436.5,-396 430.5,-396 424.5,-390 424.5,-384 424.5,-384 424.5,-372 424.5,-372 424.5,-366 430.5,-360 436.5,-360 436.5,-360 466.5,-360 466.5,-360 472.5,-360 478.5,-366 478.5,-372 478.5,-372 478.5,-384 478.5,-384 478.5,-390 472.5,-396 466.5,-396"/>
<text text-anchor="middle" x="451.5" y="-375.5" font-family="sans" font-size="10.00">split</text>
</g>
<!-- 6&#45;&gt;3 -->
<g id="edge15" class="edge">
<title>6&#45;&gt;3</title>
<path fill="none" stroke="grey" stroke-width="2" d="M451.5,-359.7C451.5,-351.98 451.5,-342.71 451.5,-334.11"/>
<polygon fill="grey" stroke="grey" stroke-width="2" points="455,-334.1 451.5,-324.1 448,-334.1 455,-334.1"/>
</g>
<!-- 6&#45;&gt;7 -->
<g id="edge18" class="edge">
<title>6&#45;&gt;7</title>
<path fill="none" stroke="grey" stroke-width="2" d="M424.33,-371.84C363.19,-359.28 211.8,-322.83 105.5,-252 69.37,-227.93 55.46,-220.37 39.5,-180 31.71,-160.3 31.98,-136.18 33.9,-118.02"/>
<polygon fill="grey" stroke="grey" stroke-width="2" points="37.38,-118.46 35.18,-108.09 30.43,-117.56 37.38,-118.46"/>
</g>
<!-- 6&#45;&gt;8 -->
<g id="edge22" class="edge">
<title>6&#45;&gt;8</title>
<path fill="none" stroke="grey" stroke-width="2" d="M471.94,-359.81C507.85,-329.8 584.85,-266.27 652.5,-216 666.18,-205.84 681.59,-195.09 695.01,-185.96"/>
<polygon fill="grey" stroke="grey" stroke-width="2" points="697.19,-188.71 703.5,-180.21 693.26,-182.91 697.19,-188.71"/>
</g>
<!-- 7&#45;&gt;0 -->
<g id="edge9" class="edge">
<title>7&#45;&gt;0</title>
<path fill="none" stroke="grey" stroke-width="2" d="M77.05,-75.69C81.88,-74.3 86.78,-73.03 91.5,-72 241.71,-39.34 424.92,-25.61 502.25,-20.98"/>
<polygon fill="grey" stroke="grey" stroke-width="2" points="502.66,-24.46 512.44,-20.38 502.25,-17.47 502.66,-24.46"/>
</g>
<!-- 8&#45;&gt;0 -->
<g id="edge4" class="edge">
<title>8&#45;&gt;0</title>
<path fill="none" stroke="grey" stroke-width="2" d="M713.98,-143.9C696.2,-124.9 665.62,-94.02 635.5,-72 616.83,-58.35 594.26,-45.72 575.7,-36.22"/>
<polygon fill="grey" stroke="grey" stroke-width="2" points="577.18,-33.04 566.67,-31.68 574.03,-39.3 577.18,-33.04"/>
</g>
<!-- 9&#45;&gt;0 -->
<g id="edge8" class="edge">
<title>9&#45;&gt;0</title>
<path fill="none" stroke="grey" stroke-width="2" d="M444.09,-144.68C495.24,-131.04 559.72,-113.04 563.5,-108 577.28,-89.63 568.07,-63.88 557.31,-44.81"/>
<polygon fill="grey" stroke="grey" stroke-width="2" points="560.18,-42.78 552,-36.04 554.19,-46.41 560.18,-42.78"/>
</g>
<!-- 10&#45;&gt;0 -->
<g id="edge12" class="edge">
<title>10&#45;&gt;0</title>
<path fill="none" stroke="grey" stroke-width="2" d="M561.67,-143.94C575.48,-135.25 589.85,-123.26 597.5,-108 604.67,-93.7 603.95,-86.64 597.5,-72 592.47,-60.59 583.64,-50.57 574.36,-42.41"/>
<polygon fill="grey" stroke="grey" stroke-width="2" points="576.49,-39.62 566.54,-35.99 572.05,-45.04 576.49,-39.62"/>
</g>
<!-- 11&#45;&gt;0 -->
<g id="edge1" class="edge">
<title>11&#45;&gt;0</title>
<path fill="none" stroke="grey" stroke-width="2" d="M635.78,-143.83C634.22,-124.77 629.4,-93.82 614.5,-72 604.6,-57.5 589.34,-45.66 575.16,-36.89"/>
<polygon fill="grey" stroke="grey" stroke-width="2" points="576.92,-33.86 566.52,-31.82 573.38,-39.9 576.92,-33.86"/>
</g>
<!-- 12&#45;&gt;0 -->
<g id="edge6" class="edge">
<title>12&#45;&gt;0</title>
<path fill="none" stroke="grey" stroke-width="2" d="M149,-143.7C129.71,-124.52 105.59,-93.48 124.5,-72 149.31,-43.82 404.73,-26.59 502.08,-21"/>
<polygon fill="grey" stroke="grey" stroke-width="2" points="502.56,-24.48 512.35,-20.42 502.17,-17.49 502.56,-24.48"/>
</g>
<!-- 13&#45;&gt;0 -->
<g id="edge2" class="edge">
<title>13&#45;&gt;0</title>
<path fill="none" stroke="grey" stroke-width="2" d="M403.53,-71.88C433.98,-60.04 474.01,-44.47 502.75,-33.29"/>
<polygon fill="grey" stroke="grey" stroke-width="2" points="504.35,-36.42 512.4,-29.54 501.82,-29.9 504.35,-36.42"/>
</g>
<!-- 14&#45;&gt;0 -->
<g id="edge10" class="edge">
<title>14&#45;&gt;0</title>
<path fill="none" stroke="grey" stroke-width="2" d="M506.38,-71.7C511.49,-63.56 517.7,-53.69 523.34,-44.7"/>
<polygon fill="grey" stroke="grey" stroke-width="2" points="526.39,-46.43 528.75,-36.1 520.46,-42.71 526.39,-46.43"/>
</g>
<!-- 15&#45;&gt;0 -->
<g id="edge7" class="edge">
<title>15&#45;&gt;0</title>
<path fill="none" stroke="grey" stroke-width="2" d="M245.23,-75.19C250.05,-74.08 254.85,-73 259.5,-72 346.09,-53.3 448.54,-34.83 502.29,-25.42"/>
<polygon fill="grey" stroke="grey" stroke-width="2" points="503.13,-28.82 512.38,-23.66 501.92,-21.93 503.13,-28.82"/>
</g>
<!-- 16 -->
<g id="node17" class="node">
<title>16</title>
<path fill="none" stroke="#56d8c9" stroke-width="2" d="M821,-108C821,-108 738,-108 738,-108 732,-108 726,-102 726,-96 726,-96 726,-84 726,-84 726,-78 732,-72 738,-72 738,-72 821,-72 821,-72 827,-72 833,-78 833,-84 833,-84 833,-96 833,-96 833,-102 827,-108 821,-108"/>
<text text-anchor="middle" x="779.5" y="-87.5" font-family="sans" font-size="10.00">env_export_seurat</text>
</g>
<!-- 16&#45;&gt;0 -->
<g id="edge11" class="edge">
<title>16&#45;&gt;0</title>
<path fill="none" stroke="grey" stroke-width="2" d="M725.94,-73.38C680.34,-60.08 616.06,-41.33 576.13,-29.68"/>
<polygon fill="grey" stroke="grey" stroke-width="2" points="577.11,-26.32 566.53,-26.88 575.15,-33.04 577.11,-26.32"/>
</g>
<!-- 17 -->
<g id="node18" class="node">
<title>17</title>
<path fill="none" stroke="#d8ac56" stroke-width="2" d="M961.5,-108C961.5,-108 863.5,-108 863.5,-108 857.5,-108 851.5,-102 851.5,-96 851.5,-96 851.5,-84 851.5,-84 851.5,-78 857.5,-72 863.5,-72 863.5,-72 961.5,-72 961.5,-72 967.5,-72 973.5,-78 973.5,-84 973.5,-84 973.5,-96 973.5,-96 973.5,-102 967.5,-108 961.5,-108"/>
<text text-anchor="middle" x="912.5" y="-87.5" font-family="sans" font-size="10.00">env_export_inspectdf</text>
</g>
<!-- 17&#45;&gt;0 -->
<g id="edge3" class="edge">
<title>17&#45;&gt;0</title>
<path fill="none" stroke="grey" stroke-width="2" d="M851.47,-73.93C848.44,-73.26 845.44,-72.61 842.5,-72 747.27,-52.13 634.15,-33.7 576.81,-24.72"/>
<polygon fill="grey" stroke="grey" stroke-width="2" points="577.19,-21.24 566.77,-23.16 576.12,-28.16 577.19,-21.24"/>
</g>
</g>
</svg>
