<?xml version="1.0" encoding="UTF-8" standalone="no"?>
<!DOCTYPE svg PUBLIC "-//W3C//DTD SVG 1.1//EN"
 "http://www.w3.org/Graphics/SVG/1.1/DTD/svg11.dtd">
<!-- Generated by graphviz version 2.47.2 (20210527.1257)
 -->
<!-- Title: snakemake_dag Pages: 1 -->
<svg width="257pt" height="476pt"
 viewBox="0.00 0.00 256.50 476.00" xmlns="http://www.w3.org/2000/svg" xmlns:xlink="http://www.w3.org/1999/xlink">
<g id="graph0" class="graph" transform="scale(1 1) rotate(0) translate(4 472)">
<title>snakemake_dag</title>
<polygon fill="white" stroke="transparent" points="-4,4 -4,-472 252.5,-472 252.5,4 -4,4"/>
<!-- 0 -->
<g id="node1" class="node">
<title>0</title>
<path fill="none" stroke="#5692d8" stroke-width="2" d="M106,-36C106,-36 76,-36 76,-36 70,-36 64,-30 64,-24 64,-24 64,-12 64,-12 64,-6 70,0 76,0 76,0 106,0 106,0 112,0 118,-6 118,-12 118,-12 118,-24 118,-24 118,-30 112,-36 106,-36"/>
<text text-anchor="middle" x="91" y="-15.5" font-family="sans" font-size="10.00">all</text>
</g>
<!-- 1 -->
<g id="node2" class="node">
<title>1</title>
<path fill="none" stroke="#56c9d8" stroke-width="2" d="M51,-180C51,-180 21,-180 21,-180 15,-180 9,-174 9,-168 9,-168 9,-156 9,-156 9,-150 15,-144 21,-144 21,-144 51,-144 51,-144 57,-144 63,-150 63,-156 63,-156 63,-168 63,-168 63,-174 57,-180 51,-180"/>
<text text-anchor="middle" x="36" y="-159.5" font-family="sans" font-size="10.00">correct</text>
</g>
<!-- 1&#45;&gt;0 -->
<g id="edge3" class="edge">
<title>1&#45;&gt;0</title>
<path fill="none" stroke="grey" stroke-width="2" d="M35.9,-143.89C36.37,-125.42 38.85,-95.51 49,-72 53.37,-61.87 60.19,-52.04 67.08,-43.65"/>
<polygon fill="grey" stroke="grey" stroke-width="2" points="69.73,-45.94 73.62,-36.08 64.43,-41.36 69.73,-45.94"/>
</g>
<!-- 7 -->
<g id="node8" class="node">
<title>7</title>
<path fill="none" stroke="#56d8a9" stroke-width="2" d="M111.5,-108C111.5,-108 70.5,-108 70.5,-108 64.5,-108 58.5,-102 58.5,-96 58.5,-96 58.5,-84 58.5,-84 58.5,-78 64.5,-72 70.5,-72 70.5,-72 111.5,-72 111.5,-72 117.5,-72 123.5,-78 123.5,-84 123.5,-84 123.5,-96 123.5,-96 123.5,-102 117.5,-108 111.5,-108"/>
<text text-anchor="middle" x="91" y="-87.5" font-family="sans" font-size="10.00">ridge_plot</text>
</g>
<!-- 1&#45;&gt;7 -->
<g id="edge10" class="edge">
<title>1&#45;&gt;7</title>
<path fill="none" stroke="grey" stroke-width="2" d="M49.6,-143.7C56.12,-135.39 64.07,-125.28 71.25,-116.14"/>
<polygon fill="grey" stroke="grey" stroke-width="2" points="74.13,-118.13 77.56,-108.1 68.63,-113.81 74.13,-118.13"/>
</g>
<!-- 2 -->
<g id="node3" class="node">
<title>2</title>
<path fill="none" stroke="#d85656" stroke-width="2" d="M83.5,-252C83.5,-252 42.5,-252 42.5,-252 36.5,-252 30.5,-246 30.5,-240 30.5,-240 30.5,-228 30.5,-228 30.5,-222 36.5,-216 42.5,-216 42.5,-216 83.5,-216 83.5,-216 89.5,-216 95.5,-222 95.5,-228 95.5,-228 95.5,-240 95.5,-240 95.5,-246 89.5,-252 83.5,-252"/>
<text text-anchor="middle" x="63" y="-231.5" font-family="sans" font-size="10.00">normalize</text>
</g>
<!-- 2&#45;&gt;1 -->
<g id="edge4" class="edge">
<title>2&#45;&gt;1</title>
<path fill="none" stroke="grey" stroke-width="2" d="M56.33,-215.7C53.29,-207.81 49.62,-198.3 46.24,-189.55"/>
<polygon fill="grey" stroke="grey" stroke-width="2" points="49.46,-188.17 42.6,-180.1 42.93,-190.69 49.46,-188.17"/>
</g>
<!-- 2&#45;&gt;7 -->
<g id="edge9" class="edge">
<title>2&#45;&gt;7</title>
<path fill="none" stroke="grey" stroke-width="2" d="M66.38,-215.87C71.17,-191.56 79.99,-146.82 85.67,-118.01"/>
<polygon fill="grey" stroke="grey" stroke-width="2" points="89.11,-118.68 87.61,-108.19 82.24,-117.32 89.11,-118.68"/>
</g>
<!-- 3 -->
<g id="node4" class="node">
<title>3</title>
<path fill="none" stroke="#d8cb56" stroke-width="2" d="M84.5,-324C84.5,-324 41.5,-324 41.5,-324 35.5,-324 29.5,-318 29.5,-312 29.5,-312 29.5,-300 29.5,-300 29.5,-294 35.5,-288 41.5,-288 41.5,-288 84.5,-288 84.5,-288 90.5,-288 96.5,-294 96.5,-300 96.5,-300 96.5,-312 96.5,-312 96.5,-318 90.5,-324 84.5,-324"/>
<text text-anchor="middle" x="63" y="-303.5" font-family="sans" font-size="10.00">filter_cells</text>
</g>
<!-- 3&#45;&gt;2 -->
<g id="edge5" class="edge">
<title>3&#45;&gt;2</title>
<path fill="none" stroke="grey" stroke-width="2" d="M63,-287.7C63,-279.98 63,-270.71 63,-262.11"/>
<polygon fill="grey" stroke="grey" stroke-width="2" points="66.5,-262.1 63,-252.1 59.5,-262.1 66.5,-262.1"/>
</g>
<!-- 4 -->
<g id="node5" class="node">
<title>4</title>
<path fill="none" stroke="#d88d56" stroke-width="2" d="M42,-396C42,-396 12,-396 12,-396 6,-396 0,-390 0,-384 0,-384 0,-372 0,-372 0,-366 6,-360 12,-360 12,-360 42,-360 42,-360 48,-360 54,-366 54,-372 54,-372 54,-384 54,-384 54,-390 48,-396 42,-396"/>
<text text-anchor="middle" x="27" y="-375.5" font-family="sans" font-size="10.00">merge</text>
</g>
<!-- 4&#45;&gt;3 -->
<g id="edge6" class="edge">
<title>4&#45;&gt;3</title>
<path fill="none" stroke="grey" stroke-width="2" d="M35.9,-359.7C40,-351.73 44.95,-342.1 49.49,-333.26"/>
<polygon fill="grey" stroke="grey" stroke-width="2" points="52.74,-334.6 54.2,-324.1 46.52,-331.4 52.74,-334.6"/>
</g>
<!-- 5 -->
<g id="node6" class="node">
<title>5</title>
<path fill="none" stroke="#56d873" stroke-width="2" d="M42,-468C42,-468 12,-468 12,-468 6,-468 0,-462 0,-456 0,-456 0,-444 0,-444 0,-438 6,-432 12,-432 12,-432 42,-432 42,-432 48,-432 54,-438 54,-444 54,-444 54,-456 54,-456 54,-462 48,-468 42,-468"/>
<text text-anchor="middle" x="27" y="-447.5" font-family="sans" font-size="10.00">prepare</text>
</g>
<!-- 5&#45;&gt;4 -->
<g id="edge8" class="edge">
<title>5&#45;&gt;4</title>
<path fill="none" stroke="grey" stroke-width="2" d="M27,-431.7C27,-423.98 27,-414.71 27,-406.11"/>
<polygon fill="grey" stroke="grey" stroke-width="2" points="30.5,-406.1 27,-396.1 23.5,-406.1 30.5,-406.1"/>
</g>
<!-- 6 -->
<g id="node7" class="node">
<title>6</title>
<path fill="none" stroke="#70d856" stroke-width="2" d="M114,-396C114,-396 84,-396 84,-396 78,-396 72,-390 72,-384 72,-384 72,-372 72,-372 72,-366 78,-360 84,-360 84,-360 114,-360 114,-360 120,-360 126,-366 126,-372 126,-372 126,-384 126,-384 126,-390 120,-396 114,-396"/>
<text text-anchor="middle" x="99" y="-375.5" font-family="sans" font-size="10.00">split</text>
</g>
<!-- 6&#45;&gt;3 -->
<g id="edge7" class="edge">
<title>6&#45;&gt;3</title>
<path fill="none" stroke="grey" stroke-width="2" d="M90.1,-359.7C86,-351.73 81.05,-342.1 76.51,-333.26"/>
<polygon fill="grey" stroke="grey" stroke-width="2" points="79.48,-331.4 71.8,-324.1 73.26,-334.6 79.48,-331.4"/>
</g>
<!-- 7&#45;&gt;0 -->
<g id="edge2" class="edge">
<title>7&#45;&gt;0</title>
<path fill="none" stroke="grey" stroke-width="2" d="M91,-71.7C91,-63.98 91,-54.71 91,-46.11"/>
<polygon fill="grey" stroke="grey" stroke-width="2" points="94.5,-46.1 91,-36.1 87.5,-46.1 94.5,-46.1"/>
</g>
<!-- 8 -->
<g id="node9" class="node">
<title>8</title>
<path fill="none" stroke="#afd856" stroke-width="2" d="M236.5,-108C236.5,-108 153.5,-108 153.5,-108 147.5,-108 141.5,-102 141.5,-96 141.5,-96 141.5,-84 141.5,-84 141.5,-78 147.5,-72 153.5,-72 153.5,-72 236.5,-72 236.5,-72 242.5,-72 248.5,-78 248.5,-84 248.5,-84 248.5,-96 248.5,-96 248.5,-102 242.5,-108 236.5,-108"/>
<text text-anchor="middle" x="195" y="-87.5" font-family="sans" font-size="10.00">env_export_seurat</text>
</g>
<!-- 8&#45;&gt;0 -->
<g id="edge1" class="edge">
<title>8&#45;&gt;0</title>
<path fill="none" stroke="grey" stroke-width="2" d="M169.56,-71.88C156.21,-62.89 139.68,-51.76 125.22,-42.03"/>
<polygon fill="grey" stroke="grey" stroke-width="2" points="126.79,-38.87 116.54,-36.19 122.88,-44.68 126.79,-38.87"/>
</g>
</g>
</svg>
